<svg width="307" height="253" viewBox="0 0 307 253" fill="none" xmlns="http://www.w3.org/2000/svg">
<rect x="82" y="138" width="30" height="70" rx="15" fill="#240090"/>
<rect x="160" y="138" width="30" height="60" rx="15" fill="#0C0032"/>
<rect x="121" y="113" width="30" height="110" rx="15" fill="#3500D3"/>
<rect x="199" y="83" width="30" height="130" rx="15" fill="#190061"/>
<rect x="238" y="123" width="30" height="130" rx="15" fill="#0C0032"/>
<rect x="277" y="113" width="30" height="100" rx="15" fill="#3500D3"/>
<path fill-rule="evenodd" clip-rule="evenodd" d="M69.772 8.35474L47.3002 0V130.765C39.5716 130.16 31.8084 131.366 24.6281 134.289C5.84461 141.96 -3.91243 160.413 1.47279 173.317C6.8698 186.255 25.3822 192.218 44.1421 184.547C58.5656 178.655 68.5701 167.448 69.8781 156.713L69.7838 41.0313C100.74 50.4348 123.047 60.7457 123.047 91.5133C123.047 102.437 140.958 112.995 140.958 70.161C140.947 33.7253 109.696 11.6896 69.772 8.35474V8.35474Z" fill="#190061"/>
</svg>
